<svg xmlns="http://www.w3.org/2000/svg" id="Laag_1" data-name="Laag 1" viewBox="0 0 650 650"><defs><style>      .cls-1 {        fill: #23ae84;      }      .cls-1, .cls-2 {        stroke-width: 0px;      }      .cls-2 {        fill: #f1f0cb;      }    </style></defs><circle class="cls-2" cx="325" cy="325" r="310.34"></circle><path class="cls-1" d="m520.33,150l-57.25,8.41,4.21,28.62c9.45,64.29,18.69,179.9-25.56,231.79-12.97,15.21-29.61,23.06-49.44,23.31-1.95.03-45.33.17-55.7-31.98,52.98-37.51,91.64-134.11,85.23-186.24-3.92-31.91-22.34-42.94-32.98-46.67-9.82-3.45-29.59-6.54-51.65,11.49-41.54,33.95-72.04,129.48-62.76,196.58.61,4.38,1.93,8.49,3.83,12.25-5.13,6.13-14.03,15.94-25.11,24.74-13.02,10.34-31.94,21.54-48.16,16.18-19.62-6.48-25.16-16.82-27.81-25.11-15.44-48.41,40.42-150.27,79.26-203.09l-23.29-46.09h-114.65v57.86h61.02c-7.52,12.43-15.67,26.75-23.54,42.14-35.57,69.62-46.99,125.71-33.93,166.71,9.57,30.05,31.97,51.66,64.79,62.51,22.76,7.52,59.18,8.99,103.48-26.75,2.92-2.35,5.71-4.75,8.37-7.14,22.82,27.63,59.54,40.47,92.71,40.47.54,0,1.08,0,1.62,0,36.73-.47,68.8-15.55,92.74-43.62,45.05-52.83,58.1-146.27,38.78-277.74l-4.21-28.62Zm-153.85,74.56c3.24-2.65,5.71-3.69,6.73-3.69.05,0,.1,0,.14,0,1.1,1.41,4.05,8.55,2.46,24.8-4.34,44.44-31.39,94.67-56.7,118.97-1.66-52.69,23.14-120.27,47.38-140.08Z"></path></svg>